<?xml version="1.0" encoding="UTF-8" standalone="no"?>
<!DOCTYPE svg PUBLIC "-//W3C//DTD SVG 1.1//EN"
 "http://www.w3.org/Graphics/SVG/1.1/DTD/svg11.dtd">
<!-- Generated by graphviz version 2.43.0 (0)
 -->
<!-- Title: %3 Pages: 1 -->
<svg width="429pt" height="864pt"
 viewBox="0.00 0.00 428.88 864.00" xmlns="http://www.w3.org/2000/svg" xmlns:xlink="http://www.w3.org/1999/xlink">
<g id="graph0" class="graph" transform="scale(1.28 1.28) rotate(0) translate(4 1102)">
<title>%3</title>
<polygon fill="white" stroke="transparent" points="-4,4 -4,-1102 545,-1102 545,4 -4,4"/>
<!-- 139852780356528 -->
<g id="node1" class="node">
<title>139852780356528</title>
<polygon fill="#caff70" stroke="black" points="411,-31 346,-31 346,0 411,0 411,-31"/>
<text text-anchor="middle" x="378.5" y="-7" font-family="monospace" font-size="10.00"> (1, 10)</text>
</g>
<!-- 139852726342352 -->
<g id="node2" class="node">
<title>139852726342352</title>
<polygon fill="lightgrey" stroke="black" points="429,-86 328,-86 328,-67 429,-67 429,-86"/>
<text text-anchor="middle" x="378.5" y="-74" font-family="monospace" font-size="10.00">AddmmBackward0</text>
</g>
<!-- 139852726342352&#45;&gt;139852780356528 -->
<g id="edge38" class="edge">
<title>139852726342352&#45;&gt;139852780356528</title>
<path fill="none" stroke="black" d="M378.5,-66.79C378.5,-60.07 378.5,-50.4 378.5,-41.34"/>
<polygon fill="black" stroke="black" points="382,-41.19 378.5,-31.19 375,-41.19 382,-41.19"/>
</g>
<!-- 139852726341968 -->
<g id="node3" class="node">
<title>139852726341968</title>
<polygon fill="lightgrey" stroke="black" points="316,-141 215,-141 215,-122 316,-122 316,-141"/>
<text text-anchor="middle" x="265.5" y="-129" font-family="monospace" font-size="10.00">AccumulateGrad</text>
</g>
<!-- 139852726341968&#45;&gt;139852726342352 -->
<g id="edge1" class="edge">
<title>139852726341968&#45;&gt;139852726342352</title>
<path fill="none" stroke="black" d="M283.66,-121.98C301.75,-113.5 329.78,-100.35 350.69,-90.54"/>
<polygon fill="black" stroke="black" points="352.45,-93.59 360.01,-86.17 349.47,-87.25 352.45,-93.59"/>
</g>
<!-- 139852792940800 -->
<g id="node4" class="node">
<title>139852792940800</title>
<polygon fill="lightblue" stroke="black" points="298,-207 233,-207 233,-177 298,-177 298,-207"/>
<text text-anchor="middle" x="265.5" y="-195" font-family="monospace" font-size="10.00">fc2.bias</text>
<text text-anchor="middle" x="265.5" y="-184" font-family="monospace" font-size="10.00"> (10)</text>
</g>
<!-- 139852792940800&#45;&gt;139852726341968 -->
<g id="edge2" class="edge">
<title>139852792940800&#45;&gt;139852726341968</title>
<path fill="none" stroke="black" d="M265.5,-176.84C265.5,-169.21 265.5,-159.7 265.5,-151.45"/>
<polygon fill="black" stroke="black" points="269,-151.27 265.5,-141.27 262,-151.27 269,-151.27"/>
</g>
<!-- 139852726342064 -->
<g id="node5" class="node">
<title>139852726342064</title>
<polygon fill="lightgrey" stroke="black" points="423,-141 334,-141 334,-122 423,-122 423,-141"/>
<text text-anchor="middle" x="378.5" y="-129" font-family="monospace" font-size="10.00">MulBackward0</text>
</g>
<!-- 139852726342064&#45;&gt;139852726342352 -->
<g id="edge3" class="edge">
<title>139852726342064&#45;&gt;139852726342352</title>
<path fill="none" stroke="black" d="M378.5,-121.75C378.5,-114.8 378.5,-104.85 378.5,-96.13"/>
<polygon fill="black" stroke="black" points="382,-96.09 378.5,-86.09 375,-96.09 382,-96.09"/>
</g>
<!-- 139852726342112 -->
<g id="node6" class="node">
<title>139852726342112</title>
<polygon fill="lightgrey" stroke="black" points="422,-201.5 327,-201.5 327,-182.5 422,-182.5 422,-201.5"/>
<text text-anchor="middle" x="374.5" y="-189.5" font-family="monospace" font-size="10.00">TanhBackward0</text>
</g>
<!-- 139852726342112&#45;&gt;139852726342064 -->
<g id="edge4" class="edge">
<title>139852726342112&#45;&gt;139852726342064</title>
<path fill="none" stroke="black" d="M375.09,-182.37C375.65,-174.25 376.5,-161.81 377.21,-151.39"/>
<polygon fill="black" stroke="black" points="380.72,-151.38 377.91,-141.17 373.73,-150.91 380.72,-151.38"/>
</g>
<!-- 139852726341824 -->
<g id="node7" class="node">
<title>139852726341824</title>
<polygon fill="lightgrey" stroke="black" points="425,-267.5 324,-267.5 324,-248.5 425,-248.5 425,-267.5"/>
<text text-anchor="middle" x="374.5" y="-255.5" font-family="monospace" font-size="10.00">AddmmBackward0</text>
</g>
<!-- 139852726341824&#45;&gt;139852726342112 -->
<g id="edge5" class="edge">
<title>139852726341824&#45;&gt;139852726342112</title>
<path fill="none" stroke="black" d="M374.5,-248.37C374.5,-239.16 374.5,-224.29 374.5,-212.27"/>
<polygon fill="black" stroke="black" points="378,-211.91 374.5,-201.91 371,-211.91 378,-211.91"/>
</g>
<!-- 139852726341728 -->
<g id="node8" class="node">
<title>139852726341728</title>
<polygon fill="lightgrey" stroke="black" points="309,-328 208,-328 208,-309 309,-309 309,-328"/>
<text text-anchor="middle" x="258.5" y="-316" font-family="monospace" font-size="10.00">AccumulateGrad</text>
</g>
<!-- 139852726341728&#45;&gt;139852726341824 -->
<g id="edge6" class="edge">
<title>139852726341728&#45;&gt;139852726341824</title>
<path fill="none" stroke="black" d="M275.62,-308.87C294.72,-299.23 325.87,-283.53 348.1,-272.31"/>
<polygon fill="black" stroke="black" points="349.96,-275.3 357.31,-267.67 346.81,-269.05 349.96,-275.3"/>
</g>
<!-- 139852780456432 -->
<g id="node9" class="node">
<title>139852780456432</title>
<polygon fill="lightblue" stroke="black" points="291,-394 226,-394 226,-364 291,-364 291,-394"/>
<text text-anchor="middle" x="258.5" y="-382" font-family="monospace" font-size="10.00">fc1.bias</text>
<text text-anchor="middle" x="258.5" y="-371" font-family="monospace" font-size="10.00"> (84)</text>
</g>
<!-- 139852780456432&#45;&gt;139852726341728 -->
<g id="edge7" class="edge">
<title>139852780456432&#45;&gt;139852726341728</title>
<path fill="none" stroke="black" d="M258.5,-363.84C258.5,-356.21 258.5,-346.7 258.5,-338.45"/>
<polygon fill="black" stroke="black" points="262,-338.27 258.5,-328.27 255,-338.27 262,-338.27"/>
</g>
<!-- 139852726341776 -->
<g id="node10" class="node">
<title>139852726341776</title>
<polygon fill="lightgrey" stroke="black" points="422,-328 327,-328 327,-309 422,-309 422,-328"/>
<text text-anchor="middle" x="374.5" y="-316" font-family="monospace" font-size="10.00">ViewBackward0</text>
</g>
<!-- 139852726341776&#45;&gt;139852726341824 -->
<g id="edge8" class="edge">
<title>139852726341776&#45;&gt;139852726341824</title>
<path fill="none" stroke="black" d="M374.5,-308.87C374.5,-300.75 374.5,-288.31 374.5,-277.89"/>
<polygon fill="black" stroke="black" points="378,-277.67 374.5,-267.67 371,-277.67 378,-277.67"/>
</g>
<!-- 139852726341632 -->
<g id="node11" class="node">
<title>139852726341632</title>
<polygon fill="lightgrey" stroke="black" points="416,-388.5 327,-388.5 327,-369.5 416,-369.5 416,-388.5"/>
<text text-anchor="middle" x="371.5" y="-376.5" font-family="monospace" font-size="10.00">MulBackward0</text>
</g>
<!-- 139852726341632&#45;&gt;139852726341776 -->
<g id="edge9" class="edge">
<title>139852726341632&#45;&gt;139852726341776</title>
<path fill="none" stroke="black" d="M371.94,-369.37C372.36,-361.25 373,-348.81 373.53,-338.39"/>
<polygon fill="black" stroke="black" points="377.04,-338.33 374.06,-328.17 370.05,-337.97 377.04,-338.33"/>
</g>
<!-- 139852726341296 -->
<g id="node12" class="node">
<title>139852726341296</title>
<polygon fill="lightgrey" stroke="black" points="419,-454.5 324,-454.5 324,-435.5 419,-435.5 419,-454.5"/>
<text text-anchor="middle" x="371.5" y="-442.5" font-family="monospace" font-size="10.00">TanhBackward0</text>
</g>
<!-- 139852726341296&#45;&gt;139852726341632 -->
<g id="edge10" class="edge">
<title>139852726341296&#45;&gt;139852726341632</title>
<path fill="none" stroke="black" d="M371.5,-435.37C371.5,-426.16 371.5,-411.29 371.5,-399.27"/>
<polygon fill="black" stroke="black" points="375,-398.91 371.5,-388.91 368,-398.91 375,-398.91"/>
</g>
<!-- 139852726341200 -->
<g id="node13" class="node">
<title>139852726341200</title>
<polygon fill="lightgrey" stroke="black" points="440,-515 303,-515 303,-496 440,-496 440,-515"/>
<text text-anchor="middle" x="371.5" y="-503" font-family="monospace" font-size="10.00">ConvolutionBackward0</text>
</g>
<!-- 139852726341200&#45;&gt;139852726341296 -->
<g id="edge11" class="edge">
<title>139852726341200&#45;&gt;139852726341296</title>
<path fill="none" stroke="black" d="M371.5,-495.87C371.5,-487.75 371.5,-475.31 371.5,-464.89"/>
<polygon fill="black" stroke="black" points="375,-464.67 371.5,-454.67 368,-464.67 375,-464.67"/>
</g>
<!-- 139852726341104 -->
<g id="node14" class="node">
<title>139852726341104</title>
<polygon fill="lightgrey" stroke="black" points="303,-570 178,-570 178,-551 303,-551 303,-570"/>
<text text-anchor="middle" x="240.5" y="-558" font-family="monospace" font-size="10.00">AvgPool2DBackward0</text>
</g>
<!-- 139852726341104&#45;&gt;139852726341200 -->
<g id="edge12" class="edge">
<title>139852726341104&#45;&gt;139852726341200</title>
<path fill="none" stroke="black" d="M261.55,-550.98C282.91,-542.34 316.2,-528.87 340.56,-519.02"/>
<polygon fill="black" stroke="black" points="342.11,-522.17 350.07,-515.17 339.49,-515.68 342.11,-522.17"/>
</g>
<!-- 139852726340816 -->
<g id="node15" class="node">
<title>139852726340816</title>
<polygon fill="lightgrey" stroke="black" points="285,-630.5 196,-630.5 196,-611.5 285,-611.5 285,-630.5"/>
<text text-anchor="middle" x="240.5" y="-618.5" font-family="monospace" font-size="10.00">MulBackward0</text>
</g>
<!-- 139852726340816&#45;&gt;139852726341104 -->
<g id="edge13" class="edge">
<title>139852726340816&#45;&gt;139852726341104</title>
<path fill="none" stroke="black" d="M240.5,-611.37C240.5,-603.25 240.5,-590.81 240.5,-580.39"/>
<polygon fill="black" stroke="black" points="244,-580.17 240.5,-570.17 237,-580.17 244,-580.17"/>
</g>
<!-- 139852726340720 -->
<g id="node16" class="node">
<title>139852726340720</title>
<polygon fill="lightgrey" stroke="black" points="288,-691 193,-691 193,-672 288,-672 288,-691"/>
<text text-anchor="middle" x="240.5" y="-679" font-family="monospace" font-size="10.00">TanhBackward0</text>
</g>
<!-- 139852726340720&#45;&gt;139852726340816 -->
<g id="edge14" class="edge">
<title>139852726340720&#45;&gt;139852726340816</title>
<path fill="none" stroke="black" d="M240.5,-671.87C240.5,-663.75 240.5,-651.31 240.5,-640.89"/>
<polygon fill="black" stroke="black" points="244,-640.67 240.5,-630.67 237,-640.67 244,-640.67"/>
</g>
<!-- 139852726340576 -->
<g id="node17" class="node">
<title>139852726340576</title>
<polygon fill="lightgrey" stroke="black" points="309,-746 172,-746 172,-727 309,-727 309,-746"/>
<text text-anchor="middle" x="240.5" y="-734" font-family="monospace" font-size="10.00">ConvolutionBackward0</text>
</g>
<!-- 139852726340576&#45;&gt;139852726340720 -->
<g id="edge15" class="edge">
<title>139852726340576&#45;&gt;139852726340720</title>
<path fill="none" stroke="black" d="M240.5,-726.75C240.5,-719.8 240.5,-709.85 240.5,-701.13"/>
<polygon fill="black" stroke="black" points="244,-701.09 240.5,-691.09 237,-701.09 244,-701.09"/>
</g>
<!-- 139852726340432 -->
<g id="node18" class="node">
<title>139852726340432</title>
<polygon fill="lightgrey" stroke="black" points="172,-801 47,-801 47,-782 172,-782 172,-801"/>
<text text-anchor="middle" x="109.5" y="-789" font-family="monospace" font-size="10.00">AvgPool2DBackward0</text>
</g>
<!-- 139852726340432&#45;&gt;139852726340576 -->
<g id="edge16" class="edge">
<title>139852726340432&#45;&gt;139852726340576</title>
<path fill="none" stroke="black" d="M130.55,-781.98C151.91,-773.34 185.2,-759.87 209.56,-750.02"/>
<polygon fill="black" stroke="black" points="211.11,-753.17 219.07,-746.17 208.49,-746.68 211.11,-753.17"/>
</g>
<!-- 139852726342544 -->
<g id="node19" class="node">
<title>139852726342544</title>
<polygon fill="lightgrey" stroke="black" points="154,-861.5 65,-861.5 65,-842.5 154,-842.5 154,-861.5"/>
<text text-anchor="middle" x="109.5" y="-849.5" font-family="monospace" font-size="10.00">MulBackward0</text>
</g>
<!-- 139852726342544&#45;&gt;139852726340432 -->
<g id="edge17" class="edge">
<title>139852726342544&#45;&gt;139852726340432</title>
<path fill="none" stroke="black" d="M109.5,-842.37C109.5,-834.25 109.5,-821.81 109.5,-811.39"/>
<polygon fill="black" stroke="black" points="113,-811.17 109.5,-801.17 106,-811.17 113,-811.17"/>
</g>
<!-- 139852726342640 -->
<g id="node20" class="node">
<title>139852726342640</title>
<polygon fill="lightgrey" stroke="black" points="157,-922 62,-922 62,-903 157,-903 157,-922"/>
<text text-anchor="middle" x="109.5" y="-910" font-family="monospace" font-size="10.00">TanhBackward0</text>
</g>
<!-- 139852726342640&#45;&gt;139852726342544 -->
<g id="edge18" class="edge">
<title>139852726342640&#45;&gt;139852726342544</title>
<path fill="none" stroke="black" d="M109.5,-902.87C109.5,-894.75 109.5,-882.31 109.5,-871.89"/>
<polygon fill="black" stroke="black" points="113,-871.67 109.5,-861.67 106,-871.67 113,-871.67"/>
</g>
<!-- 139852726342736 -->
<g id="node21" class="node">
<title>139852726342736</title>
<polygon fill="lightgrey" stroke="black" points="178,-977 41,-977 41,-958 178,-958 178,-977"/>
<text text-anchor="middle" x="109.5" y="-965" font-family="monospace" font-size="10.00">ConvolutionBackward0</text>
</g>
<!-- 139852726342736&#45;&gt;139852726342640 -->
<g id="edge19" class="edge">
<title>139852726342736&#45;&gt;139852726342640</title>
<path fill="none" stroke="black" d="M109.5,-957.75C109.5,-950.8 109.5,-940.85 109.5,-932.13"/>
<polygon fill="black" stroke="black" points="113,-932.09 109.5,-922.09 106,-932.09 113,-932.09"/>
</g>
<!-- 139852726342832 -->
<g id="node22" class="node">
<title>139852726342832</title>
<polygon fill="lightgrey" stroke="black" points="101,-1032 0,-1032 0,-1013 101,-1013 101,-1032"/>
<text text-anchor="middle" x="50.5" y="-1020" font-family="monospace" font-size="10.00">AccumulateGrad</text>
</g>
<!-- 139852726342832&#45;&gt;139852726342736 -->
<g id="edge20" class="edge">
<title>139852726342832&#45;&gt;139852726342736</title>
<path fill="none" stroke="black" d="M59.98,-1012.98C68.7,-1005.15 81.84,-993.34 92.4,-983.86"/>
<polygon fill="black" stroke="black" points="94.75,-986.46 99.85,-977.17 90.07,-981.25 94.75,-986.46"/>
</g>
<!-- 139852780567616 -->
<g id="node23" class="node">
<title>139852780567616</title>
<polygon fill="lightblue" stroke="black" points="98,-1098 3,-1098 3,-1068 98,-1068 98,-1098"/>
<text text-anchor="middle" x="50.5" y="-1086" font-family="monospace" font-size="10.00">conv1.weight</text>
<text text-anchor="middle" x="50.5" y="-1075" font-family="monospace" font-size="10.00"> (6, 1, 5, 5)</text>
</g>
<!-- 139852780567616&#45;&gt;139852726342832 -->
<g id="edge21" class="edge">
<title>139852780567616&#45;&gt;139852726342832</title>
<path fill="none" stroke="black" d="M50.5,-1067.84C50.5,-1060.21 50.5,-1050.7 50.5,-1042.45"/>
<polygon fill="black" stroke="black" points="54,-1042.27 50.5,-1032.27 47,-1042.27 54,-1042.27"/>
</g>
<!-- 139852726342784 -->
<g id="node24" class="node">
<title>139852726342784</title>
<polygon fill="lightgrey" stroke="black" points="220,-1032 119,-1032 119,-1013 220,-1013 220,-1032"/>
<text text-anchor="middle" x="169.5" y="-1020" font-family="monospace" font-size="10.00">AccumulateGrad</text>
</g>
<!-- 139852726342784&#45;&gt;139852726342736 -->
<g id="edge22" class="edge">
<title>139852726342784&#45;&gt;139852726342736</title>
<path fill="none" stroke="black" d="M159.86,-1012.98C150.99,-1005.15 137.63,-993.34 126.89,-983.86"/>
<polygon fill="black" stroke="black" points="129.13,-981.17 119.32,-977.17 124.49,-986.41 129.13,-981.17"/>
</g>
<!-- 139852780567536 -->
<g id="node25" class="node">
<title>139852780567536</title>
<polygon fill="lightblue" stroke="black" points="208,-1098 131,-1098 131,-1068 208,-1068 208,-1098"/>
<text text-anchor="middle" x="169.5" y="-1086" font-family="monospace" font-size="10.00">conv1.bias</text>
<text text-anchor="middle" x="169.5" y="-1075" font-family="monospace" font-size="10.00"> (6)</text>
</g>
<!-- 139852780567536&#45;&gt;139852726342784 -->
<g id="edge23" class="edge">
<title>139852780567536&#45;&gt;139852726342784</title>
<path fill="none" stroke="black" d="M169.5,-1067.84C169.5,-1060.21 169.5,-1050.7 169.5,-1042.45"/>
<polygon fill="black" stroke="black" points="173,-1042.27 169.5,-1032.27 166,-1042.27 173,-1042.27"/>
</g>
<!-- 139852726340528 -->
<g id="node26" class="node">
<title>139852726340528</title>
<polygon fill="lightgrey" stroke="black" points="291,-801 190,-801 190,-782 291,-782 291,-801"/>
<text text-anchor="middle" x="240.5" y="-789" font-family="monospace" font-size="10.00">AccumulateGrad</text>
</g>
<!-- 139852726340528&#45;&gt;139852726340576 -->
<g id="edge24" class="edge">
<title>139852726340528&#45;&gt;139852726340576</title>
<path fill="none" stroke="black" d="M240.5,-781.75C240.5,-774.8 240.5,-764.85 240.5,-756.13"/>
<polygon fill="black" stroke="black" points="244,-756.09 240.5,-746.09 237,-756.09 244,-756.09"/>
</g>
<!-- 139852780359488 -->
<g id="node27" class="node">
<title>139852780359488</title>
<polygon fill="lightblue" stroke="black" points="291,-867 190,-867 190,-837 291,-837 291,-867"/>
<text text-anchor="middle" x="240.5" y="-855" font-family="monospace" font-size="10.00">conv2.weight</text>
<text text-anchor="middle" x="240.5" y="-844" font-family="monospace" font-size="10.00"> (16, 6, 5, 5)</text>
</g>
<!-- 139852780359488&#45;&gt;139852726340528 -->
<g id="edge25" class="edge">
<title>139852780359488&#45;&gt;139852726340528</title>
<path fill="none" stroke="black" d="M240.5,-836.84C240.5,-829.21 240.5,-819.7 240.5,-811.45"/>
<polygon fill="black" stroke="black" points="244,-811.27 240.5,-801.27 237,-811.27 244,-811.27"/>
</g>
<!-- 139852726341008 -->
<g id="node28" class="node">
<title>139852726341008</title>
<polygon fill="lightgrey" stroke="black" points="410,-801 309,-801 309,-782 410,-782 410,-801"/>
<text text-anchor="middle" x="359.5" y="-789" font-family="monospace" font-size="10.00">AccumulateGrad</text>
</g>
<!-- 139852726341008&#45;&gt;139852726340576 -->
<g id="edge26" class="edge">
<title>139852726341008&#45;&gt;139852726340576</title>
<path fill="none" stroke="black" d="M340.38,-781.98C321.15,-773.42 291.27,-760.11 269.19,-750.28"/>
<polygon fill="black" stroke="black" points="270.53,-747.04 259.97,-746.17 267.68,-753.44 270.53,-747.04"/>
</g>
<!-- 139852780567696 -->
<g id="node29" class="node">
<title>139852780567696</title>
<polygon fill="lightblue" stroke="black" points="398,-867 321,-867 321,-837 398,-837 398,-867"/>
<text text-anchor="middle" x="359.5" y="-855" font-family="monospace" font-size="10.00">conv2.bias</text>
<text text-anchor="middle" x="359.5" y="-844" font-family="monospace" font-size="10.00"> (16)</text>
</g>
<!-- 139852780567696&#45;&gt;139852726341008 -->
<g id="edge27" class="edge">
<title>139852780567696&#45;&gt;139852726341008</title>
<path fill="none" stroke="black" d="M359.5,-836.84C359.5,-829.21 359.5,-819.7 359.5,-811.45"/>
<polygon fill="black" stroke="black" points="363,-811.27 359.5,-801.27 356,-811.27 363,-811.27"/>
</g>
<!-- 139852726341152 -->
<g id="node30" class="node">
<title>139852726341152</title>
<polygon fill="lightgrey" stroke="black" points="422,-570 321,-570 321,-551 422,-551 422,-570"/>
<text text-anchor="middle" x="371.5" y="-558" font-family="monospace" font-size="10.00">AccumulateGrad</text>
</g>
<!-- 139852726341152&#45;&gt;139852726341200 -->
<g id="edge28" class="edge">
<title>139852726341152&#45;&gt;139852726341200</title>
<path fill="none" stroke="black" d="M371.5,-550.75C371.5,-543.8 371.5,-533.85 371.5,-525.13"/>
<polygon fill="black" stroke="black" points="375,-525.09 371.5,-515.09 368,-525.09 375,-525.09"/>
</g>
<!-- 139852780567856 -->
<g id="node31" class="node">
<title>139852780567856</title>
<polygon fill="lightblue" stroke="black" points="428,-636 315,-636 315,-606 428,-606 428,-636"/>
<text text-anchor="middle" x="371.5" y="-624" font-family="monospace" font-size="10.00">conv3.weight</text>
<text text-anchor="middle" x="371.5" y="-613" font-family="monospace" font-size="10.00"> (120, 16, 5, 5)</text>
</g>
<!-- 139852780567856&#45;&gt;139852726341152 -->
<g id="edge29" class="edge">
<title>139852780567856&#45;&gt;139852726341152</title>
<path fill="none" stroke="black" d="M371.5,-605.84C371.5,-598.21 371.5,-588.7 371.5,-580.45"/>
<polygon fill="black" stroke="black" points="375,-580.27 371.5,-570.27 368,-580.27 375,-580.27"/>
</g>
<!-- 139852726341536 -->
<g id="node32" class="node">
<title>139852726341536</title>
<polygon fill="lightgrey" stroke="black" points="541,-570 440,-570 440,-551 541,-551 541,-570"/>
<text text-anchor="middle" x="490.5" y="-558" font-family="monospace" font-size="10.00">AccumulateGrad</text>
</g>
<!-- 139852726341536&#45;&gt;139852726341200 -->
<g id="edge30" class="edge">
<title>139852726341536&#45;&gt;139852726341200</title>
<path fill="none" stroke="black" d="M471.38,-550.98C452.15,-542.42 422.27,-529.11 400.19,-519.28"/>
<polygon fill="black" stroke="black" points="401.53,-516.04 390.97,-515.17 398.68,-522.44 401.53,-516.04"/>
</g>
<!-- 139852780567936 -->
<g id="node33" class="node">
<title>139852780567936</title>
<polygon fill="lightblue" stroke="black" points="529,-636 452,-636 452,-606 529,-606 529,-636"/>
<text text-anchor="middle" x="490.5" y="-624" font-family="monospace" font-size="10.00">conv3.bias</text>
<text text-anchor="middle" x="490.5" y="-613" font-family="monospace" font-size="10.00"> (120)</text>
</g>
<!-- 139852780567936&#45;&gt;139852726341536 -->
<g id="edge31" class="edge">
<title>139852780567936&#45;&gt;139852726341536</title>
<path fill="none" stroke="black" d="M490.5,-605.84C490.5,-598.21 490.5,-588.7 490.5,-580.45"/>
<polygon fill="black" stroke="black" points="494,-580.27 490.5,-570.27 487,-580.27 494,-580.27"/>
</g>
<!-- 139852726342208 -->
<g id="node34" class="node">
<title>139852726342208</title>
<polygon fill="lightgrey" stroke="black" points="519,-328 442,-328 442,-309 519,-309 519,-328"/>
<text text-anchor="middle" x="480.5" y="-316" font-family="monospace" font-size="10.00">TBackward0</text>
</g>
<!-- 139852726342208&#45;&gt;139852726341824 -->
<g id="edge32" class="edge">
<title>139852726342208&#45;&gt;139852726341824</title>
<path fill="none" stroke="black" d="M464.86,-308.87C447.56,-299.32 419.45,-283.81 399.17,-272.62"/>
<polygon fill="black" stroke="black" points="400.65,-269.43 390.2,-267.67 397.27,-275.56 400.65,-269.43"/>
</g>
<!-- 139852726341248 -->
<g id="node35" class="node">
<title>139852726341248</title>
<polygon fill="lightgrey" stroke="black" points="535,-388.5 434,-388.5 434,-369.5 535,-369.5 535,-388.5"/>
<text text-anchor="middle" x="484.5" y="-376.5" font-family="monospace" font-size="10.00">AccumulateGrad</text>
</g>
<!-- 139852726341248&#45;&gt;139852726342208 -->
<g id="edge33" class="edge">
<title>139852726341248&#45;&gt;139852726342208</title>
<path fill="none" stroke="black" d="M483.91,-369.37C483.35,-361.25 482.5,-348.81 481.79,-338.39"/>
<polygon fill="black" stroke="black" points="485.27,-337.91 481.09,-328.17 478.28,-338.38 485.27,-337.91"/>
</g>
<!-- 139852785521648 -->
<g id="node36" class="node">
<title>139852785521648</title>
<polygon fill="lightblue" stroke="black" points="523,-460 446,-460 446,-430 523,-430 523,-460"/>
<text text-anchor="middle" x="484.5" y="-448" font-family="monospace" font-size="10.00">fc1.weight</text>
<text text-anchor="middle" x="484.5" y="-437" font-family="monospace" font-size="10.00"> (84, 120)</text>
</g>
<!-- 139852785521648&#45;&gt;139852726341248 -->
<g id="edge34" class="edge">
<title>139852785521648&#45;&gt;139852726341248</title>
<path fill="none" stroke="black" d="M484.5,-429.8C484.5,-420.7 484.5,-408.79 484.5,-398.9"/>
<polygon fill="black" stroke="black" points="488,-398.84 484.5,-388.84 481,-398.84 488,-398.84"/>
</g>
<!-- 139852726342016 -->
<g id="node37" class="node">
<title>139852726342016</title>
<polygon fill="lightgrey" stroke="black" points="522,-141 445,-141 445,-122 522,-122 522,-141"/>
<text text-anchor="middle" x="483.5" y="-129" font-family="monospace" font-size="10.00">TBackward0</text>
</g>
<!-- 139852726342016&#45;&gt;139852726342352 -->
<g id="edge35" class="edge">
<title>139852726342016&#45;&gt;139852726342352</title>
<path fill="none" stroke="black" d="M466.63,-121.98C449.89,-113.54 424,-100.47 404.61,-90.68"/>
<polygon fill="black" stroke="black" points="406.18,-87.55 395.68,-86.17 403.03,-93.8 406.18,-87.55"/>
</g>
<!-- 139852726341680 -->
<g id="node38" class="node">
<title>139852726341680</title>
<polygon fill="lightgrey" stroke="black" points="541,-201.5 440,-201.5 440,-182.5 541,-182.5 541,-201.5"/>
<text text-anchor="middle" x="490.5" y="-189.5" font-family="monospace" font-size="10.00">AccumulateGrad</text>
</g>
<!-- 139852726341680&#45;&gt;139852726342016 -->
<g id="edge36" class="edge">
<title>139852726341680&#45;&gt;139852726342016</title>
<path fill="none" stroke="black" d="M489.47,-182.37C488.5,-174.25 487.01,-161.81 485.76,-151.39"/>
<polygon fill="black" stroke="black" points="489.2,-150.68 484.54,-141.17 482.25,-151.51 489.2,-150.68"/>
</g>
<!-- 139852796142880 -->
<g id="node39" class="node">
<title>139852796142880</title>
<polygon fill="lightblue" stroke="black" points="529,-273 452,-273 452,-243 529,-243 529,-273"/>
<text text-anchor="middle" x="490.5" y="-261" font-family="monospace" font-size="10.00">fc2.weight</text>
<text text-anchor="middle" x="490.5" y="-250" font-family="monospace" font-size="10.00"> (10, 84)</text>
</g>
<!-- 139852796142880&#45;&gt;139852726341680 -->
<g id="edge37" class="edge">
<title>139852796142880&#45;&gt;139852726341680</title>
<path fill="none" stroke="black" d="M490.5,-242.8C490.5,-233.7 490.5,-221.79 490.5,-211.9"/>
<polygon fill="black" stroke="black" points="494,-211.84 490.5,-201.84 487,-211.84 494,-211.84"/>
</g>
</g>
</svg>
